<?xml version="1.0" encoding="UTF-8"?>
<svg height="128px" viewBox="0 0 128 128" width="128px" xmlns="http://www.w3.org/2000/svg" xmlns:xlink="http://www.w3.org/1999/xlink">
    <linearGradient id="a" gradientTransform="matrix(0.24396 -0.054626 0.054626 0.24396 -214.649994 -161.580624)" gradientUnits="userSpaceOnUse" x1="672.580017" x2="1106.699951" y1="1195.599976" y2="1292.699951">
        <stop offset="0" stop-color="#504e55"/>
        <stop offset="0.035945" stop-color="#848387"/>
        <stop offset="0.089131" stop-color="#48464d"/>
        <stop offset="0.95775" stop-color="#48464d"/>
        <stop offset="0.98018" stop-color="#848387"/>
        <stop offset="1" stop-color="#48464d"/>
    </linearGradient>
    <linearGradient id="b" gradientTransform="matrix(0.975837 -0.218501 0.218501 0.975837 -121.518249 -432.822853)" gradientUnits="userSpaceOnUse" x1="16.193197" x2="136.662109" y1="494.218689" y2="521.193054">
        <stop offset="0" stop-color="#898991"/>
        <stop offset="0.0464075" stop-color="#66666e"/>
        <stop offset="0.953643" stop-color="#66666e"/>
        <stop offset="1" stop-color="#898991"/>
    </linearGradient>
    <linearGradient id="c" gradientTransform="matrix(0.975837 -0.218501 0.218501 0.975837 -121.518249 -432.822853)" gradientUnits="userSpaceOnUse" x1="119.207062" x2="116.235046" y1="491.541321" y2="504.814514">
        <stop offset="0" stop-color="#898991"/>
        <stop offset="1" stop-color="#66666e"/>
    </linearGradient>
    <linearGradient id="d" gradientUnits="userSpaceOnUse" x1="95.45713" x2="95.45713" y1="23.972167" y2="31.000375">
        <stop offset="0" stop-color="#ffa348"/>
        <stop offset="1" stop-color="#dc7637"/>
    </linearGradient>
    <linearGradient id="e" gradientTransform="matrix(0.25 -0.11112 0 0.25 -453.75 435.44939)" gradientUnits="userSpaceOnUse" x1="1947.599976" x2="2265.800049" y1="-429.709991" y2="-429.709991">
        <stop offset="0" stop-color="#3d3846"/>
        <stop offset="0.014778" stop-color="#6f6d76"/>
        <stop offset="0.03" stop-color="#434148"/>
        <stop offset="0.97" stop-color="#434148"/>
        <stop offset="0.98575" stop-color="#999999"/>
        <stop offset="1" stop-color="#3d3846"/>
    </linearGradient>
    <linearGradient id="f" gradientTransform="matrix(-0.25 0 0 0.25 142.149994 228.350021)" gradientUnits="userSpaceOnUse" x1="88.596001" x2="536.599976" y1="-449.390015" y2="-449.390015">
        <stop offset="0" stop-color="#77767b"/>
        <stop offset="0.035945" stop-color="#bfbfbf"/>
        <stop offset="0.071297" stop-color="#999999"/>
        <stop offset="0.92857" stop-color="#999999"/>
        <stop offset="0.96429" stop-color="#bfbfbf"/>
        <stop offset="1" stop-color="#77767b"/>
    </linearGradient>
    <linearGradient id="g" gradientUnits="userSpaceOnUse" x1="23.514984" x2="104.44000225" y1="116.00251025" y2="116.00251025">
        <stop offset="0" stop-color="#999999"/>
        <stop offset="0.014778" stop-color="#bfbfbf"/>
        <stop offset="0.03" stop-color="#999999"/>
        <stop offset="0.97" stop-color="#999999"/>
        <stop offset="0.98575" stop-color="#bfbfbf"/>
        <stop offset="1" stop-color="#999999"/>
    </linearGradient>
    <linearGradient id="h" gradientUnits="userSpaceOnUse" x1="34" x2="47" y1="114.999017" y2="114.999017">
        <stop offset="0.0001" stop-color="#241f31"/>
        <stop offset="0.23019" stop-color="#3d3846"/>
        <stop offset="0.50137" stop-color="#5b5861"/>
        <stop offset="0.77254" stop-color="#3d3846"/>
        <stop offset="0.9999" stop-color="#241f31"/>
    </linearGradient>
    <linearGradient id="i" gradientUnits="userSpaceOnUse" x1="81" x2="94" y1="114.999017" y2="114.999017">
        <stop offset="0" stop-color="#241f31"/>
        <stop offset="0.23019" stop-color="#3d3846"/>
        <stop offset="0.50137" stop-color="#5d5a63"/>
        <stop offset="0.77254" stop-color="#3d3846"/>
        <stop offset="0.9999" stop-color="#241f31"/>
    </linearGradient>
    <linearGradient id="j" gradientUnits="userSpaceOnUse" x1="55" x2="73" y1="113.940017" y2="113.940017">
        <stop offset="0" stop-color="#241f31"/>
        <stop offset="0.125" stop-color="#3d3846"/>
        <stop offset="0.27" stop-color="#241f31"/>
        <stop offset="0.40232" stop-color="#3d3846"/>
        <stop offset="0.5" stop-color="#5e5c64"/>
        <stop offset="0.60041" stop-color="#3d3846"/>
        <stop offset="0.73" stop-color="#241f31"/>
        <stop offset="0.875" stop-color="#3d3846"/>
        <stop offset="1" stop-color="#241f31"/>
    </linearGradient>
    <clipPath id="k">
        <path d="m 24 89 h 80 v 19 h -80 z m 0 0"/>
    </clipPath>
    <clipPath id="l">
        <path d="m 31 89.988281 c -1.765625 0 -3.304688 1.199219 -3.738281 2.90625 l -3.203125 12.613281 c -0.039063 0.160157 -0.058594 0.324219 -0.058594 0.492188 c 0 1.105469 0.894531 2 2 2 h 76 c 1.105469 0 2 -0.894531 2 -2 c 0 -0.167969 -0.019531 -0.332031 -0.0625 -0.492188 v -0.003906 s 0 -0.003906 -0.003906 -0.007812 l -3.195313 -12.589844 c -0.433593 -1.710938 -1.972656 -2.90625 -3.738281 -2.90625 z m 0 0"/>
    </clipPath>
    <clipPath id="m">
        <path d="m 31 95 h 66 v 10 h -66 z m 0 0"/>
    </clipPath>
    <clipPath id="n">
        <path d="m 45.976562 95.949219 c -1.121093 0 -2.027343 0.90625 -2.027343 2.023437 c 0 1.121094 0.90625 2.027344 2.027343 2.027344 c 1.117188 0 2.023438 -0.90625 2.023438 -2.027344 c 0 -1.117187 -0.90625 -2.023437 -2.023438 -2.023437 z m 36.023438 0.023437 c -1.117188 0 -2.027344 0.910156 -2.027344 2.027344 s 0.910156 2.027344 2.027344 2.023438 c 1.117188 0.003906 2.027344 -0.90625 2.027344 -2.023438 s -0.910156 -2.027344 -2.027344 -2.027344 z m -48.023438 4.300782 c -1.121093 0 -2.027343 0.910156 -2.027343 2.027343 c 0 1.117188 0.90625 2.023438 2.027343 2.023438 c 1.117188 0 2.023438 -0.90625 2.023438 -2.023438 c 0 -1.117187 -0.90625 -2.027343 -2.023438 -2.027343 z m 60.050782 0.027343 c -1.121094 0 -2.027344 0.90625 -2.027344 2.023438 c 0 1.121093 0.90625 2.027343 2.027344 2.027343 c 1.117187 0 2.023437 -0.90625 2.023437 -2.027343 c 0 -1.117188 -0.90625 -2.023438 -2.023437 -2.023438 z m 0 0"/>
    </clipPath>
    <clipPath id="o">
        <path d="m 31 97 h 65 v 8 h -65 z m 0 0"/>
    </clipPath>
    <clipPath id="p">
        <path d="m 45.976562 95.949219 c -1.121093 0 -2.027343 0.90625 -2.027343 2.023437 c 0 1.121094 0.90625 2.027344 2.027343 2.027344 c 1.117188 0 2.023438 -0.90625 2.023438 -2.027344 c 0 -1.117187 -0.90625 -2.023437 -2.023438 -2.023437 z m 36.023438 0.023437 c -1.117188 0 -2.027344 0.910156 -2.027344 2.027344 s 0.910156 2.027344 2.027344 2.023438 c 1.117188 0.003906 2.027344 -0.90625 2.027344 -2.023438 s -0.910156 -2.027344 -2.027344 -2.027344 z m -48.023438 4.300782 c -1.121093 0 -2.027343 0.910156 -2.027343 2.027343 c 0 1.117188 0.90625 2.023438 2.027343 2.023438 c 1.117188 0 2.023438 -0.90625 2.023438 -2.023438 c 0 -1.117187 -0.90625 -2.027343 -2.023438 -2.027343 z m 60.050782 0.027343 c -1.121094 0 -2.027344 0.90625 -2.027344 2.023438 c 0 1.121093 0.90625 2.027343 2.027344 2.027343 c 1.117187 0 2.023437 -0.90625 2.023437 -2.027343 c 0 -1.117188 -0.90625 -2.023438 -2.023437 -2.023438 z m 0 0"/>
    </clipPath>
    <linearGradient id="q" gradientTransform="matrix(1.0789 0 0 1.1667 -13.684 -191.169983)" gradientUnits="userSpaceOnUse" x1="74.401001" x2="74.401001" y1="193.339996" y2="235.210007">
        <stop offset="0.26053" stop-color="#f5c211"/>
        <stop offset="1" stop-color="#f66151"/>
    </linearGradient>
    <clipPath id="r">
        <path d="m 30 62 h 16 v 16 h -16 z m 0 0"/>
    </clipPath>
    <clipPath id="s">
        <path d="m 46 70 c 0 4.417969 -3.582031 8 -8 8 s -8 -3.582031 -8 -8 s 3.582031 -8 8 -8 s 8 3.582031 8 8 z m 0 0"/>
    </clipPath>
    <clipPath id="t">
        <path d="m 30 63 h 16 v 15 h -16 z m 0 0"/>
    </clipPath>
    <clipPath id="u">
        <path d="m 46 70 c 0 4.417969 -3.582031 8 -8 8 s -8 -3.582031 -8 -8 s 3.582031 -8 8 -8 s 8 3.582031 8 8 z m 0 0"/>
    </clipPath>
    <clipPath id="v">
        <path d="m 32 66 h 12 v 11 h -12 z m 0 0"/>
    </clipPath>
    <clipPath id="w">
        <path d="m 46 70 c 0 4.417969 -3.582031 8 -8 8 s -8 -3.582031 -8 -8 s 3.582031 -8 8 -8 s 8 3.582031 8 8 z m 0 0"/>
    </clipPath>
    <clipPath id="x">
        <path d="m 39.027344 65.089844 c 0.867187 0.148437 1.695312 0.492187 2.414062 1 l -0.703125 0.703125 l -0.640625 1.359375 l 0.75 0.75 l 1.359375 -0.640625 l 0.703125 -0.703125 c 0.507813 0.71875 0.851563 1.546875 1 2.414062 h -1.054687 l -1.414063 0.507813 v 1.0625 l 1.414063 0.507812 h 1.050781 c -0.152344 0.863281 -0.496094 1.6875 -1.003906 2.40625 l -0.695313 -0.695312 l -1.359375 -0.640625 l -0.75 0.75 l 0.640625 1.359375 l 0.691407 0.691406 c -0.71875 0.5 -1.539063 0.839844 -2.402344 0.992187 v -1.035156 l -0.507813 -1.414062 h -1.0625 l -0.507812 1.414062 v 1.027344 c -0.859375 -0.152344 -1.679688 -0.492188 -2.394531 -0.996094 l 0.683593 -0.683594 l 0.640625 -1.355468 l -0.75 -0.75 l -1.359375 0.636718 l -0.683593 0.6875 c -0.5 -0.714843 -0.839844 -1.535156 -0.996094 -2.398437 h 1.03125 l 1.410156 -0.503906 v -1.0625 l -1.410156 -0.507813 h -1.035156 c 0.152343 -0.863281 0.488281 -1.683594 0.992187 -2.40625 l 0.691406 0.695313 l 1.359375 0.636719 l 0.75 -0.75 l -0.640625 -1.355469 l -0.695312 -0.695313 c 0.71875 -0.507812 1.542969 -0.851562 2.40625 -1.003906 v 1.050781 l 0.507812 1.410157 h 1.0625 l 0.507813 -1.410157 z m 0 0"/>
    </clipPath>
    <clipPath id="y">
        <path d="m 32 65 h 12 v 12 h -12 z m 0 0"/>
    </clipPath>
    <clipPath id="z">
        <path d="m 46 70 c 0 4.417969 -3.582031 8 -8 8 s -8 -3.582031 -8 -8 s 3.582031 -8 8 -8 s 8 3.582031 8 8 z m 0 0"/>
    </clipPath>
    <clipPath id="A">
        <path d="m 39.027344 65.089844 c 0.867187 0.148437 1.695312 0.492187 2.414062 1 l -0.703125 0.703125 l -0.640625 1.359375 l 0.75 0.75 l 1.359375 -0.640625 l 0.703125 -0.703125 c 0.507813 0.71875 0.851563 1.546875 1 2.414062 h -1.054687 l -1.414063 0.507813 v 1.0625 l 1.414063 0.507812 h 1.050781 c -0.152344 0.863281 -0.496094 1.6875 -1.003906 2.40625 l -0.695313 -0.695312 l -1.359375 -0.640625 l -0.75 0.75 l 0.640625 1.359375 l 0.691407 0.691406 c -0.71875 0.5 -1.539063 0.839844 -2.402344 0.992187 v -1.035156 l -0.507813 -1.414062 h -1.0625 l -0.507812 1.414062 v 1.027344 c -0.859375 -0.152344 -1.679688 -0.492188 -2.394531 -0.996094 l 0.683593 -0.683594 l 0.640625 -1.355468 l -0.75 -0.75 l -1.359375 0.636718 l -0.683593 0.6875 c -0.5 -0.714843 -0.839844 -1.535156 -0.996094 -2.398437 h 1.03125 l 1.410156 -0.503906 v -1.0625 l -1.410156 -0.507813 h -1.035156 c 0.152343 -0.863281 0.488281 -1.683594 0.992187 -2.40625 l 0.691406 0.695313 l 1.359375 0.636719 l 0.75 -0.75 l -0.640625 -1.355469 l -0.695312 -0.695313 c 0.71875 -0.507812 1.542969 -0.851562 2.40625 -1.003906 v 1.050781 l 0.507812 1.410157 h 1.0625 l 0.507813 -1.410157 z m 0 0"/>
    </clipPath>
    <clipPath id="B">
        <path d="m 32 66 h 12 v 11 h -12 z m 0 0"/>
    </clipPath>
    <clipPath id="C">
        <path d="m 46 70 c 0 4.417969 -3.582031 8 -8 8 s -8 -3.582031 -8 -8 s 3.582031 -8 8 -8 s 8 3.582031 8 8 z m 0 0"/>
    </clipPath>
    <clipPath id="D">
        <path d="m 39.027344 65.089844 c 0.867187 0.148437 1.695312 0.492187 2.414062 1 l -0.703125 0.703125 l -0.640625 1.359375 l 0.75 0.75 l 1.359375 -0.640625 l 0.703125 -0.703125 c 0.507813 0.71875 0.851563 1.546875 1 2.414062 h -1.054687 l -1.414063 0.507813 v 1.0625 l 1.414063 0.507812 h 1.050781 c -0.152344 0.863281 -0.496094 1.6875 -1.003906 2.40625 l -0.695313 -0.695312 l -1.359375 -0.640625 l -0.75 0.75 l 0.640625 1.359375 l 0.691407 0.691406 c -0.71875 0.5 -1.539063 0.839844 -2.402344 0.992187 v -1.035156 l -0.507813 -1.414062 h -1.0625 l -0.507812 1.414062 v 1.027344 c -0.859375 -0.152344 -1.679688 -0.492188 -2.394531 -0.996094 l 0.683593 -0.683594 l 0.640625 -1.355468 l -0.75 -0.75 l -1.359375 0.636718 l -0.683593 0.6875 c -0.5 -0.714843 -0.839844 -1.535156 -0.996094 -2.398437 h 1.03125 l 1.410156 -0.503906 v -1.0625 l -1.410156 -0.507813 h -1.035156 c 0.152343 -0.863281 0.488281 -1.683594 0.992187 -2.40625 l 0.691406 0.695313 l 1.359375 0.636719 l 0.75 -0.75 l -0.640625 -1.355469 l -0.695312 -0.695313 c 0.71875 -0.507812 1.542969 -0.851562 2.40625 -1.003906 v 1.050781 l 0.507812 1.410157 h 1.0625 l 0.507813 -1.410157 z m 0 0"/>
    </clipPath>
    <clipPath id="E">
        <path d="m 82 62 h 16 v 16 h -16 z m 0 0"/>
    </clipPath>
    <clipPath id="F">
        <path d="m 98 70 c 0 4.417969 -3.582031 8 -8 8 s -8 -3.582031 -8 -8 s 3.582031 -8 8 -8 s 8 3.582031 8 8 z m 0 0"/>
    </clipPath>
    <clipPath id="G">
        <path d="m 82 63 h 16 v 15 h -16 z m 0 0"/>
    </clipPath>
    <clipPath id="H">
        <path d="m 98 70 c 0 4.417969 -3.582031 8 -8 8 s -8 -3.582031 -8 -8 s 3.582031 -8 8 -8 s 8 3.582031 8 8 z m 0 0"/>
    </clipPath>
    <clipPath id="I">
        <path d="m 84 66 h 12 v 11 h -12 z m 0 0"/>
    </clipPath>
    <clipPath id="J">
        <path d="m 98 70 c 0 4.417969 -3.582031 8 -8 8 s -8 -3.582031 -8 -8 s 3.582031 -8 8 -8 s 8 3.582031 8 8 z m 0 0"/>
    </clipPath>
    <clipPath id="K">
        <path d="m 91.027344 65.089844 c 0.867187 0.148437 1.695312 0.492187 2.414062 1 l -0.703125 0.703125 l -0.640625 1.359375 l 0.75 0.75 l 1.359375 -0.640625 l 0.703125 -0.703125 c 0.507813 0.71875 0.851563 1.546875 1 2.414062 h -1.054687 l -1.414063 0.507813 v 1.0625 l 1.414063 0.507812 h 1.050781 c -0.152344 0.863281 -0.496094 1.6875 -1.003906 2.40625 l -0.695313 -0.695312 l -1.359375 -0.640625 l -0.75 0.75 l 0.640625 1.359375 l 0.691407 0.691406 c -0.71875 0.5 -1.539063 0.839844 -2.402344 0.992187 v -1.035156 l -0.507813 -1.414062 h -1.0625 l -0.507812 1.414062 v 1.027344 c -0.859375 -0.152344 -1.679688 -0.492188 -2.394531 -0.996094 l 0.683593 -0.683594 l 0.640625 -1.355468 l -0.75 -0.75 l -1.359375 0.636718 l -0.683593 0.6875 c -0.5 -0.714843 -0.839844 -1.535156 -0.996094 -2.398437 h 1.03125 l 1.410156 -0.503906 v -1.0625 l -1.410156 -0.507813 h -1.035156 c 0.152343 -0.863281 0.488281 -1.683594 0.992187 -2.40625 l 0.691406 0.695313 l 1.359375 0.636719 l 0.75 -0.75 l -0.640625 -1.355469 l -0.695312 -0.695313 c 0.71875 -0.507812 1.542969 -0.851562 2.40625 -1.003906 v 1.050781 l 0.507812 1.410157 h 1.0625 l 0.507813 -1.410157 z m 0 0"/>
    </clipPath>
    <clipPath id="L">
        <path d="m 84 65 h 12 v 12 h -12 z m 0 0"/>
    </clipPath>
    <clipPath id="M">
        <path d="m 98 70 c 0 4.417969 -3.582031 8 -8 8 s -8 -3.582031 -8 -8 s 3.582031 -8 8 -8 s 8 3.582031 8 8 z m 0 0"/>
    </clipPath>
    <clipPath id="N">
        <path d="m 91.027344 65.089844 c 0.867187 0.148437 1.695312 0.492187 2.414062 1 l -0.703125 0.703125 l -0.640625 1.359375 l 0.75 0.75 l 1.359375 -0.640625 l 0.703125 -0.703125 c 0.507813 0.71875 0.851563 1.546875 1 2.414062 h -1.054687 l -1.414063 0.507813 v 1.0625 l 1.414063 0.507812 h 1.050781 c -0.152344 0.863281 -0.496094 1.6875 -1.003906 2.40625 l -0.695313 -0.695312 l -1.359375 -0.640625 l -0.75 0.75 l 0.640625 1.359375 l 0.691407 0.691406 c -0.71875 0.5 -1.539063 0.839844 -2.402344 0.992187 v -1.035156 l -0.507813 -1.414062 h -1.0625 l -0.507812 1.414062 v 1.027344 c -0.859375 -0.152344 -1.679688 -0.492188 -2.394531 -0.996094 l 0.683593 -0.683594 l 0.640625 -1.355468 l -0.75 -0.75 l -1.359375 0.636718 l -0.683593 0.6875 c -0.5 -0.714843 -0.839844 -1.535156 -0.996094 -2.398437 h 1.03125 l 1.410156 -0.503906 v -1.0625 l -1.410156 -0.507813 h -1.035156 c 0.152343 -0.863281 0.488281 -1.683594 0.992187 -2.40625 l 0.691406 0.695313 l 1.359375 0.636719 l 0.75 -0.75 l -0.640625 -1.355469 l -0.695312 -0.695313 c 0.71875 -0.507812 1.542969 -0.851562 2.40625 -1.003906 v 1.050781 l 0.507812 1.410157 h 1.0625 l 0.507813 -1.410157 z m 0 0"/>
    </clipPath>
    <clipPath id="O">
        <path d="m 84 66 h 12 v 11 h -12 z m 0 0"/>
    </clipPath>
    <clipPath id="P">
        <path d="m 98 70 c 0 4.417969 -3.582031 8 -8 8 s -8 -3.582031 -8 -8 s 3.582031 -8 8 -8 s 8 3.582031 8 8 z m 0 0"/>
    </clipPath>
    <clipPath id="Q">
        <path d="m 91.027344 65.089844 c 0.867187 0.148437 1.695312 0.492187 2.414062 1 l -0.703125 0.703125 l -0.640625 1.359375 l 0.75 0.75 l 1.359375 -0.640625 l 0.703125 -0.703125 c 0.507813 0.71875 0.851563 1.546875 1 2.414062 h -1.054687 l -1.414063 0.507813 v 1.0625 l 1.414063 0.507812 h 1.050781 c -0.152344 0.863281 -0.496094 1.6875 -1.003906 2.40625 l -0.695313 -0.695312 l -1.359375 -0.640625 l -0.75 0.75 l 0.640625 1.359375 l 0.691407 0.691406 c -0.71875 0.5 -1.539063 0.839844 -2.402344 0.992187 v -1.035156 l -0.507813 -1.414062 h -1.0625 l -0.507812 1.414062 v 1.027344 c -0.859375 -0.152344 -1.679688 -0.492188 -2.394531 -0.996094 l 0.683593 -0.683594 l 0.640625 -1.355468 l -0.75 -0.75 l -1.359375 0.636718 l -0.683593 0.6875 c -0.5 -0.714843 -0.839844 -1.535156 -0.996094 -2.398437 h 1.03125 l 1.410156 -0.503906 v -1.0625 l -1.410156 -0.507813 h -1.035156 c 0.152343 -0.863281 0.488281 -1.683594 0.992187 -2.40625 l 0.691406 0.695313 l 1.359375 0.636719 l 0.75 -0.75 l -0.640625 -1.355469 l -0.695312 -0.695313 c 0.71875 -0.507812 1.542969 -0.851562 2.40625 -1.003906 v 1.050781 l 0.507812 1.410157 h 1.0625 l 0.507813 -1.410157 z m 0 0"/>
    </clipPath>
    <clipPath id="R">
        <path d="m 51 64 h 26 v 12 h -26 z m 0 0"/>
    </clipPath>
    <clipPath id="S">
        <path d="m 53 64 h 21.875 c 1.105469 0 2 0.894531 2 2 v 8 c 0 1.105469 -0.894531 2 -2 2 h -21.875 c -1.105469 0 -2 -0.894531 -2 -2 v -8 c 0 -1.105469 0.894531 -2 2 -2 z m 0 0"/>
    </clipPath>
    <clipPath id="T">
        <path d="m 51 64 h 11 v 12 h -11 z m 0 0"/>
    </clipPath>
    <clipPath id="U">
        <path d="m 53 64 h 21.875 c 1.105469 0 2 0.894531 2 2 v 8 c 0 1.105469 -0.894531 2 -2 2 h -21.875 c -1.105469 0 -2 -0.894531 -2 -2 v -8 c 0 -1.105469 0.894531 -2 2 -2 z m 0 0"/>
    </clipPath>
    <clipPath id="V">
        <path d="m 70 64 h 7 v 12 h -7 z m 0 0"/>
    </clipPath>
    <clipPath id="W">
        <path d="m 53 64 h 21.875 c 1.105469 0 2 0.894531 2 2 v 8 c 0 1.105469 -0.894531 2 -2 2 h -21.875 c -1.105469 0 -2 -0.894531 -2 -2 v -8 c 0 -1.105469 0.894531 -2 2 -2 z m 0 0"/>
    </clipPath>
    <clipPath id="X">
        <path d="m 51 64 h 26 v 3 h -26 z m 0 0"/>
    </clipPath>
    <clipPath id="Y">
        <path d="m 53 64 h 21.875 c 1.105469 0 2 0.894531 2 2 v 8 c 0 1.105469 -0.894531 2 -2 2 h -21.875 c -1.105469 0 -2 -0.894531 -2 -2 v -8 c 0 -1.105469 0.894531 -2 2 -2 z m 0 0"/>
    </clipPath>
    <clipPath id="Z">
        <path d="m 51 64 h 26 v 12 h -26 z m 0 0"/>
    </clipPath>
    <clipPath id="aa">
        <path d="m 53 64 h 21.875 c 1.105469 0 2 0.894531 2 2 v 8 c 0 1.105469 -0.894531 2 -2 2 h -21.875 c -1.105469 0 -2 -0.894531 -2 -2 v -8 c 0 -1.105469 0.894531 -2 2 -2 z m 0 0"/>
    </clipPath>
    <linearGradient id="ab" gradientUnits="userSpaceOnUse" x1="73.436996" x2="73.436996" y1="64.500015" y2="75.500015">
        <stop offset="0" stop-color="#5e5c64" stop-opacity="0"/>
        <stop offset="0.5" stop-color="#5e5c64"/>
        <stop offset="1" stop-color="#5e5c64" stop-opacity="0"/>
    </linearGradient>
    <clipPath id="ac">
        <path d="m 15 38 h 98 v 19 h -98 z m 0 0"/>
    </clipPath>
    <clipPath id="ad">
        <path d="m 25 38 h 78 c 1.105469 0 1.976562 0.910156 2.246094 1.980469 c 0.71875 2.828125 2.945312 5.054687 5.773437 5.773437 c 1.070313 0.269532 1.980469 1.140625 1.980469 2.246094 v 9 h -98 v -9 c 0 -1.105469 0.910156 -1.976562 1.980469 -2.246094 c 2.828125 -0.71875 5.054687 -2.945312 5.773437 -5.773437 c 0.269532 -1.070313 1.140625 -1.980469 2.246094 -1.980469 z m 0 0"/>
    </clipPath>
    <clipPath id="ae">
        <path d="m 15 43 h 98 v 8 h -98 z m 0 0"/>
    </clipPath>
    <clipPath id="af">
        <path d="m 25 38 h 78 c 1.105469 0 1.976562 0.910156 2.246094 1.980469 c 0.71875 2.828125 2.945312 5.054687 5.773437 5.773437 c 1.070313 0.269532 1.980469 1.140625 1.980469 2.246094 v 9 h -98 v -9 c 0 -1.105469 0.910156 -1.976562 1.980469 -2.246094 c 2.828125 -0.71875 5.054687 -2.945312 5.773437 -5.773437 c 0.269532 -1.070313 1.140625 -1.980469 2.246094 -1.980469 z m 0 0"/>
    </clipPath>
    <path d="m 103.601562 23.976562 c -0.535156 0.007813 -1.070312 0.074219 -1.613281 0.195313 l -93.25 21.910156 v -0.167969 h -6.46875 v 8 c 0 0.582032 0.0625 1.175782 0.195313 1.769532 l 13.765625 61.46875 c 0.96875 4.328125 5.230469 7.027344 9.554687 6.058594 l 93.683594 -20.976563 c 3.730469 -0.835937 6.253906 -4.121094 6.253906 -7.785156 v -7.996094 h -1.589844 l -12.589843 -56.226563 c -0.847657 -3.785156 -4.21875 -6.324218 -7.941407 -6.253906 z m 0 0" fill="url(#a)"/>
    <path d="m 25.253906 34.398438 l 89.011719 -0.003907 l 11.265625 50.308594 c 0.132812 0.59375 0.195312 1.183594 0.195312 1.765625 c 0 3.664062 -2.523437 6.953125 -6.253906 7.789062 l -93.679687 20.976563 c -4.324219 0.964844 -8.585938 -1.734375 -9.554688 -6.058594 l -13.765625 -61.480469 c -0.132812 -0.59375 -0.199218 -1.183593 -0.199218 -1.765624 c 0 -3.664063 2.523437 -6.953126 6.257812 -7.789063 z m 0 0" fill="url(#b)"/>
    <path d="m 25.253906 34.398438 l 76.957032 -17.234376 c 4.324218 -0.96875 8.585937 1.734376 9.554687 6.058594 l 2.5 11.171875 z m 0 0" fill="url(#c)"/>
    <path d="m 117.667969 83.429688 c -0.199219 0 -0.398438 0.023437 -0.601563 0.070312 c -1.617187 0.363281 -2.632812 1.96875 -2.273437 3.585938 c 0.363281 1.613281 1.96875 2.632812 3.585937 2.269531 c 1.617188 -0.363281 2.632813 -1.96875 2.269532 -3.582031 c -0.316407 -1.417969 -1.582032 -2.371094 -2.980469 -2.34375 z m 0.039062 2 c 0.464844 -0.007813 0.886719 0.308593 0.992188 0.78125 c 0.121093 0.539062 -0.21875 1.074218 -0.757813 1.195312 c -0.535156 0.117188 -1.074218 -0.222656 -1.195312 -0.757812 c -0.117188 -0.539063 0.222656 -1.074219 0.757812 -1.195313 c 0.070313 -0.015625 0.136719 -0.023437 0.203125 -0.023437 z m 0 0" fill="#57555b"/>
    <path d="m 10.222656 42.9375 c -0.199218 0 -0.398437 0.023438 -0.601562 0.070312 c -1.617188 0.363282 -2.632813 1.964844 -2.269532 3.582032 c 0.359376 1.617187 1.964844 2.636718 3.582032 2.273437 c 1.613281 -0.363281 2.632812 -1.96875 2.269531 -3.582031 c -0.316406 -1.417969 -1.582031 -2.371094 -2.980469 -2.34375 z m 0.039063 2 c 0.464843 -0.011719 0.886719 0.308594 0.992187 0.78125 c 0.121094 0.535156 -0.21875 1.070312 -0.757812 1.191406 c -0.539063 0.121094 -1.074219 -0.21875 -1.195313 -0.757812 c -0.121093 -0.539063 0.21875 -1.074219 0.757813 -1.191406 c 0.066406 -0.015626 0.132812 -0.023438 0.203125 -0.023438 z m 0 0" fill="#57555b"/>
    <path d="m 103.898438 21.957031 c -0.199219 0.003907 -0.398438 0.027344 -0.601563 0.074219 c -1.617187 0.363281 -2.632813 1.964844 -2.273437 3.582031 c 0.363281 1.617188 1.96875 2.632813 3.582031 2.273438 c 1.617187 -0.363281 2.636719 -1.96875 2.277343 -3.582031 c -0.320312 -1.417969 -1.585937 -2.375 -2.984374 -2.347657 z m 0.039062 2 c 0.464844 -0.007812 0.886719 0.3125 0.992188 0.785157 c 0.121093 0.535156 -0.21875 1.070312 -0.757813 1.191406 s -1.074219 -0.21875 -1.195313 -0.757813 c -0.117187 -0.539062 0.222657 -1.074219 0.757813 -1.191406 c 0.070313 -0.015625 0.136719 -0.027344 0.203125 -0.027344 z m 0 0" fill="#67656b"/>
    <path d="m 18.839844 42.992188 l 76.117187 -17.042969 c 1.078125 -0.242188 2.125 0.457031 2.625 1.441406 c 1.320313 2.601563 3.976563 4.289063 6.894531 4.371094 c 1.101563 0.03125 2.179688 0.683593 2.421876 1.761719 l 2.558593 11.425781 l -95.632812 21.414062 l -2.558594 -11.425781 c -0.238281 -1.078125 0.460937 -2.128906 1.441406 -2.625 c 2.601563 -1.320312 4.289063 -3.980469 4.375 -6.898438 c 0.03125 -1.097656 0.679688 -2.179687 1.757813 -2.421874 z m 0 0" fill="url(#d)"/>
    <path d="m 33.550781 111.21875 v 9.878906 c 0 0.488282 0.222657 0.949219 0.601563 1.257813 c 0.378906 0.308593 0.878906 0.425781 1.355468 0.324219 l 76.089844 -16.257813 c 1.140625 -0.242187 1.953125 -1.25 1.953125 -2.417969 v -10.636718 z m 0 0" fill="url(#e)"/>
    <path d="m 43.550781 117.980469 l 13.003907 -2.875 v 1 l -13.003907 2.875 z m 0 0" fill="#6f6d76"/>
    <path d="m 112 92 h -96 c -4.417969 0 -8 3.582031 -8 8 v 8 c 0 4.417969 3.582031 8 8 8 h 96 c 4.417969 0 8 -3.582031 8 -8 v -8 c 0 -4.417969 -3.582031 -8 -8 -8 z m 0 0" fill="url(#f)"/>
    <path d="m 16 31 h 96 c 4.417969 0 8 3.582031 8 8 v 61 c 0 4.417969 -3.582031 8 -8 8 h -96 c -4.417969 0 -8 -3.582031 -8 -8 v -61 c 0 -4.417969 3.582031 -8 8 -8 z m 0 0" fill="#dddddd"/>
    <path d="m 24 105.980469 v 10 c 0 1.105469 0.894531 2 2 2 h 76 c 1.105469 0 2 -0.894531 2 -2 v -10 z m 0 0" fill="url(#g)"/>
    <path d="m 34 115 v 1 h 13 v -1 z m 47 0 v 1 h 13 v -1 z m -26 1 v 1 h 18 v -1 z m 0 0" fill="#deddda"/>
    <path d="m 34 110 h 13 v 5 h -13 z m 0 0" fill="url(#h)"/>
    <path d="m 81 110 h 13 v 5 h -13 z m 0 0" fill="url(#i)"/>
    <path d="m 55 109 h 18 v 7 h -18 z m 0 0" fill="#5e5c64"/>
    <path d="m 55 110 c 3 0 6 2.875 9 2.875 s 6 -2.875 9 -2.875 v 5 c -3 0 -6 2.875 -9 2.875 s -6 -2.875 -9 -2.875 z m 0 0" fill="url(#j)"/>
    <g clip-path="url(#k)">
        <g clip-path="url(#l)">
            <path d="m 31 89.988281 c -1.765625 0 -3.304688 1.199219 -3.738281 2.90625 l -3.203125 12.613281 c -0.039063 0.160157 -0.058594 0.324219 -0.058594 0.492188 c 0 1.105469 0.894531 2 2 2 h 76 c 1.105469 0 2 -0.894531 2 -2 c 0 -0.167969 -0.019531 -0.332031 -0.0625 -0.492188 v -0.003906 s 0 -0.003906 -0.003906 -0.007812 l -3.195313 -12.589844 c -0.433593 -1.710938 -1.972656 -2.90625 -3.738281 -2.90625 z m 0 0" fill="#dddddd"/>
            <path d="m 105.058594 109.999985 l -4.320313 -17.09375 c -0.433594 -1.707032 -1.972656 -2.90625 -3.738281 -2.90625 l -66 -0.011719 c -1.765625 0 -3.304688 1.199219 -3.738281 2.90625 l -4.378907 17.105469" fill="none" stroke="#ffffff" stroke-width="3" transform="matrix(1 0 0 1 0 0.000015)"/>
        </g>
    </g>
    <g clip-path="url(#m)">
        <g clip-path="url(#n)">
            <path d="m 45.976562 95.949219 c -1.121093 0 -2.027343 0.90625 -2.027343 2.023437 c 0 1.121094 0.90625 2.027344 2.027343 2.027344 c 1.117188 0 2.023438 -0.90625 2.023438 -2.027344 c 0 -1.117187 -0.90625 -2.023437 -2.023438 -2.023437 z m 36.023438 0.023437 c -1.117188 0 -2.027344 0.910156 -2.027344 2.027344 s 0.910156 2.027344 2.027344 2.023438 c 1.117188 0.003906 2.027344 -0.90625 2.027344 -2.023438 s -0.910156 -2.027344 -2.027344 -2.027344 z m -48 4.027344 c -1.117188 0 -2.027344 0.90625 -2.027344 2.023438 c 0 1.121093 0.910156 2.027343 2.027344 2.027343 s 2.027344 -0.90625 2.027344 -2.027343 c 0 -1.117188 -0.910156 -2.023438 -2.027344 -2.023438 z m 60 0 c -1.117188 0 -2.027344 0.90625 -2.027344 2.023438 c 0 1.121093 0.910156 2.027343 2.027344 2.027343 s 2.027344 -0.90625 2.027344 -2.027343 c 0 -1.117188 -0.910156 -2.023438 -2.027344 -2.023438 z m 0 0" fill="#999999"/>
        </g>
    </g>
    <g clip-path="url(#o)">
        <g clip-path="url(#p)">
            <path d="m 45.976562 97 c -1.121093 0 -2.027343 0.90625 -2.027343 2.027344 c 0 1.117187 0.90625 2.023437 2.027343 2.023437 c 1.117188 0 2.023438 -0.90625 2.023438 -2.023437 c 0 -1.121094 -0.90625 -2.027344 -2.023438 -2.027344 z m 35.972657 0.027344 c -1.117188 -0.003906 -2.023438 0.90625 -2.023438 2.023437 c 0 1.117188 0.90625 2.027344 2.023438 2.027344 c 1.121093 0 2.027343 -0.910156 2.027343 -2.027344 c 0 -1.117187 -0.90625 -2.027343 -2.027343 -2.023437 z m -47.949219 4.023437 c -1.117188 0 -2.023438 0.90625 -2.023438 2.027344 c 0 1.117187 0.90625 2.023437 2.023438 2.023437 c 1.121094 0 2.027344 -0.90625 2.027344 -2.023437 c 0 -1.121094 -0.90625 -2.027344 -2.027344 -2.027344 z m 59.949219 0 c -1.117188 0 -2.023438 0.90625 -2.023438 2.027344 c 0 1.117187 0.90625 2.023437 2.023438 2.023437 c 1.121093 0 2.027343 -0.90625 2.027343 -2.023437 c 0 -1.121094 -0.90625 -2.027344 -2.027343 -2.027344 z m 0 0" fill="#5e5c64"/>
        </g>
    </g>
    <path d="m 113 57 h -22 v 26 h 19 c 1.65625 0 3 -1.339844 3 -2.996094 z m 0 0" fill="#813d9c"/>
    <path d="m 15 57 h 22 v 26 h -19 c -1.65625 0 -3 -1.339844 -3 -2.996094 z m 0 0" fill="#813d9c"/>
    <path d="m 15 70 h 98 v 6 h -98 z m 0 0" fill="#f14a46"/>
    <path d="m 15 63.917969 h 98 v 6.082031 h -98 z m 0 0" fill="#ff7800"/>
    <path d="m 36 57 h 55.84375 c 7.179688 0 13 5.796875 13 12.953125 v 0.09375 c 0 7.152344 -5.820312 12.953125 -13 12.953125 h -55.84375 c -7.179688 0 -13 -5.800781 -13 -12.953125 v -0.09375 c 0 -7.15625 5.820312 -12.953125 13 -12.953125 z m 0 0" fill="url(#q)"/>
    <g clip-path="url(#r)">
        <g clip-path="url(#s)">
            <path d="m 46 70 c 0 4.417969 -3.582031 8 -8 8 s -8 -3.582031 -8 -8 s 3.582031 -8 8 -8 s 8 3.582031 8 8 z m 0 0" fill="#5e5c64"/>
        </g>
    </g>
    <g clip-path="url(#t)">
        <g clip-path="url(#u)">
            <path d="m 38 63 c -4.417969 0 -8 3.582031 -8 8 s 3.582031 8 8 8 s 8 -3.582031 8 -8 s -3.582031 -8 -8 -8 z m 0 0" fill="#f5f5f5"/>
        </g>
    </g>
    <g clip-path="url(#v)">
        <g clip-path="url(#w)">
            <g clip-path="url(#x)">
                <path d="m 46 74 c 0 4.417969 -3.582031 8 -8 8 s -8 -3.582031 -8 -8 s 3.582031 -8 8 -8 s 8 3.582031 8 8 z m 0 0" fill="#4c4954"/>
            </g>
        </g>
    </g>
    <g clip-path="url(#y)">
        <g clip-path="url(#z)">
            <g clip-path="url(#A)">
                <path d="m 38 65 c -4.417969 0 -8 3.582031 -8 8 s 3.582031 8 8 8 s 8 -3.582031 8 -8 s -3.582031 -8 -8 -8 z m 1.027344 1.449219 c 0.867187 0.152343 1.695312 0.492187 2.414062 1 l -0.703125 0.707031 l -0.640625 1.355469 l 0.75 0.75 l 1.359375 -0.636719 l 0.703125 -0.707031 c 0.507813 0.722656 0.851563 1.546875 1 2.417969 h -1.054687 l -1.414063 0.507812 v 1.0625 l 1.414063 0.503906 h 1.050781 c -0.152344 0.867188 -0.496094 1.6875 -1.003906 2.410156 l -0.695313 -0.699218 l -1.359375 -0.636719 l -0.75 0.75 l 0.640625 1.355469 l 0.691407 0.695312 c -0.71875 0.5 -1.539063 0.839844 -2.402344 0.988282 v -1.035157 l -0.507813 -1.410156 h -1.0625 l -0.507812 1.410156 v 1.03125 c -0.859375 -0.152343 -1.679688 -0.492187 -2.394531 -0.996093 l 0.683593 -0.683594 l 0.640625 -1.355469 l -0.75 -0.75 l -1.359375 0.636719 l -0.683593 0.6875 c -0.5 -0.71875 -0.839844 -1.535156 -0.996094 -2.398438 h 1.03125 l 1.414062 -0.503906 v -1.0625 l -1.414062 -0.507812 l -1.035156 0.402343 c 0.152343 -0.863281 0.492187 -2.089843 0.992187 -2.808593 l 0.691406 0.695312 l 1.359375 0.636719 l 0.75 -0.75 l -0.640625 -1.355469 l -0.695312 -0.699219 c 0.71875 -0.507812 1.542969 -0.851562 2.40625 -1.003906 v 1.054687 l 0.507812 1.410157 h 1.0625 l 0.507813 -1.410157 z m 0 0" fill="#bdbcbf"/>
            </g>
        </g>
    </g>
    <g clip-path="url(#B)">
        <g clip-path="url(#C)">
            <g clip-path="url(#D)">
                <path d="m 36.949219 66.144531 v 1.363281 l 0.507812 1.410157 h 1.0625 l 0.507813 -1.410157 v -1.363281 l -0.507813 1.414063 h -1.0625 z m 5.960937 1.414063 l -0.703125 0.703125 l -1.359375 0.640625 l -0.75 -0.75 v 1.359375 l 0.75 0.75 l 1.359375 -0.636719 l 0.703125 -0.707031 z m -9.832031 0.011718 v 1.359376 l 0.691406 0.695312 l 1.359375 0.636719 l 0.75 -0.75 v -1.359375 l -0.75 0.75 l -1.359375 -0.640625 z m 1.453125 3.972657 l -1.410156 0.507812 h -1.03125 v 1.359375 h 1.03125 l 1.410156 -0.503906 z m 6.910156 0 v 1.363281 l 1.414063 0.503906 h 1.050781 v -1.359375 h -1.050781 z m -5.5625 2.328125 l -0.640625 1.359375 l -0.683593 0.683593 v 1.359376 l 0.683593 -0.683594 l 0.640625 -1.355469 z m 4.21875 0 v 1.363281 l 0.640625 1.355469 l 0.691407 0.695312 v -1.363281 l -0.691407 -0.691406 z m 0 0" fill="#bdbcbf"/>
            </g>
        </g>
    </g>
    <g clip-path="url(#E)">
        <g clip-path="url(#F)">
            <path d="m 98 70 c 0 4.417969 -3.582031 8 -8 8 s -8 -3.582031 -8 -8 s 3.582031 -8 8 -8 s 8 3.582031 8 8 z m 0 0" fill="#5e5c64"/>
        </g>
    </g>
    <g clip-path="url(#G)">
        <g clip-path="url(#H)">
            <path d="m 90 63 c -4.417969 0 -8 3.582031 -8 8 s 3.582031 8 8 8 s 8 -3.582031 8 -8 s -3.582031 -8 -8 -8 z m 0 0" fill="#f5f5f5"/>
        </g>
    </g>
    <g clip-path="url(#I)">
        <g clip-path="url(#J)">
            <g clip-path="url(#K)">
                <path d="m 98 74 c 0 4.417969 -3.582031 8 -8 8 s -8 -3.582031 -8 -8 s 3.582031 -8 8 -8 s 8 3.582031 8 8 z m 0 0" fill="#4c4954"/>
            </g>
        </g>
    </g>
    <g clip-path="url(#L)">
        <g clip-path="url(#M)">
            <g clip-path="url(#N)">
                <path d="m 90 65 c -4.417969 0 -8 3.582031 -8 8 s 3.582031 8 8 8 s 8 -3.582031 8 -8 s -3.582031 -8 -8 -8 z m 1.027344 1.449219 c 0.867187 0.152343 1.695312 0.492187 2.414062 1 l -0.703125 0.707031 l -0.640625 1.355469 l 0.75 0.75 l 1.359375 -0.636719 l 0.703125 -0.707031 c 0.507813 0.722656 0.851563 1.546875 1 2.417969 h -1.054687 l -1.414063 0.507812 v 1.0625 l 1.414063 0.503906 h 1.050781 c -0.152344 0.867188 -0.496094 1.6875 -1.003906 2.410156 l -0.695313 -0.699218 l -1.359375 -0.636719 l -0.75 0.75 l 0.640625 1.355469 l 0.691407 0.695312 c -0.71875 0.5 -1.539063 0.839844 -2.402344 0.988282 v -1.035157 l -0.507813 -1.410156 h -1.0625 l -0.507812 1.410156 v 1.03125 c -0.859375 -0.152343 -1.679688 -0.492187 -2.394531 -0.996093 l 0.683593 -0.683594 l 0.640625 -1.355469 l -0.75 -0.75 l -1.359375 0.636719 l -0.683593 0.6875 c -0.5 -0.71875 -0.839844 -1.535156 -0.996094 -2.398438 h 1.03125 l 1.414062 -0.503906 v -1.0625 l -1.414062 -0.507812 l -1.035156 0.402343 c 0.152343 -0.863281 0.492187 -2.089843 0.992187 -2.808593 l 0.691406 0.695312 l 1.359375 0.636719 l 0.75 -0.75 l -0.640625 -1.355469 l -0.695312 -0.699219 c 0.71875 -0.507812 1.542969 -0.851562 2.40625 -1.003906 v 1.054687 l 0.507812 1.410157 h 1.0625 l 0.507813 -1.410157 z m 0 0" fill="#bdbcbf"/>
            </g>
        </g>
    </g>
    <g clip-path="url(#O)">
        <g clip-path="url(#P)">
            <g clip-path="url(#Q)">
                <path d="m 88.949219 66.144531 v 1.363281 l 0.507812 1.410157 h 1.0625 l 0.507813 -1.410157 v -1.363281 l -0.507813 1.414063 h -1.0625 z m 5.960937 1.414063 l -0.703125 0.703125 l -1.359375 0.640625 l -0.75 -0.75 v 1.359375 l 0.75 0.75 l 1.359375 -0.636719 l 0.703125 -0.707031 z m -9.832031 0.011718 v 1.359376 l 0.691406 0.695312 l 1.359375 0.636719 l 0.75 -0.75 v -1.359375 l -0.75 0.75 l -1.359375 -0.640625 z m 1.453125 3.972657 l -1.410156 0.507812 h -1.03125 v 1.359375 h 1.03125 l 1.410156 -0.503906 z m 6.910156 0 v 1.363281 l 1.414063 0.503906 h 1.050781 v -1.359375 h -1.050781 z m -5.5625 2.328125 l -0.640625 1.359375 l -0.683593 0.683593 v 1.359376 l 0.683593 -0.683594 l 0.640625 -1.355469 z m 4.21875 0 v 1.363281 l 0.640625 1.355469 l 0.691407 0.695312 v -1.363281 l -0.691407 -0.691406 z m 0 0" fill="#bdbcbf"/>
            </g>
        </g>
    </g>
    <g clip-path="url(#R)">
        <g clip-path="url(#S)">
            <path d="m 53 64 h 21.875 c 1.105469 0 2 0.894531 2 2 v 8 c 0 1.105469 -0.894531 2 -2 2 h -21.875 c -1.105469 0 -2 -0.894531 -2 -2 v -8 c 0 -1.105469 0.894531 -2 2 -2 z m 0 0" fill="#4c4954"/>
        </g>
    </g>
    <g clip-path="url(#T)">
        <g clip-path="url(#U)">
            <path d="m 61.789062 71 c 0 13.140625 -10.648437 23.789062 -23.789062 23.789062 s -23.789062 -10.648437 -23.789062 -23.789062 s 10.648437 -23.789062 23.789062 -23.789062 s 23.789062 10.648437 23.789062 23.789062 z m 0 0" fill="#241f31"/>
        </g>
    </g>
    <g clip-path="url(#V)">
        <g clip-path="url(#W)">
            <path d="m 109.085938 71 c 0 10.539062 -8.546876 19.085938 -19.085938 19.085938 s -19.085938 -8.546876 -19.085938 -19.085938 s 8.546876 -19.085938 19.085938 -19.085938 s 19.085938 8.546876 19.085938 19.085938 z m 0 0" fill="#241f31"/>
        </g>
    </g>
    <g clip-path="url(#X)">
        <g clip-path="url(#Y)">
            <path d="m 53 62 c -1.109375 0 -2 0.890625 -2 2 v 3 c 0 -1.109375 0.890625 -2 2 -2 h 21.875 c 1.109375 0 2 0.890625 2 2 v -3 c 0 -1.109375 -0.890625 -2 -2 -2 z m 0 0" fill="#5e5c64"/>
        </g>
    </g>
    <g clip-path="url(#Z)">
        <g clip-path="url(#aa)">
            <path d="m 38 48.378906 c -12.480469 0 -22.621094 10.140625 -22.621094 22.621094 s 10.140625 22.621094 22.621094 22.621094 s 22.621094 -10.140625 22.621094 -22.621094 s -10.140625 -22.621094 -22.621094 -22.621094 z m 0 2 c 11.402344 0 20.621094 9.21875 20.621094 20.621094 s -9.21875 20.621094 -20.621094 20.621094 s -20.621094 -9.21875 -20.621094 -20.621094 s 9.21875 -20.621094 20.621094 -20.621094 z m 0 1.214844 c -10.707031 0 -19.40625 8.699219 -19.40625 19.40625 s 8.699219 19.410156 19.40625 19.410156 s 19.40625 -8.703125 19.40625 -19.410156 s -8.699219 -19.40625 -19.40625 -19.40625 z m 52 1.511719 c -9.871094 0 -17.898438 8.023437 -17.898438 17.894531 s 8.027344 17.898438 17.898438 17.898438 s 17.894531 -8.027344 17.894531 -17.898438 c 0 -9.875 -8.023437 -17.894531 -17.894531 -17.894531 z m -52 0.488281 c 9.625 0 17.40625 7.78125 17.40625 17.40625 s -7.78125 17.410156 -17.40625 17.410156 s -17.40625 -7.785156 -17.40625 -17.410156 s 7.78125 -17.40625 17.40625 -17.40625 z m 0 1.222656 c -8.925781 0 -16.1875 7.257813 -16.1875 16.183594 c 0 8.929688 7.261719 16.1875 16.1875 16.1875 s 16.1875 -7.257812 16.1875 -16.1875 c 0 -8.925781 -7.261719 -16.183594 -16.1875 -16.183594 z m 52 0.289063 c 8.792969 0 15.894531 7.101562 15.894531 15.894531 s -7.101562 15.898438 -15.894531 15.898438 s -15.898438 -7.105469 -15.898438 -15.898438 s 7.105469 -15.894531 15.898438 -15.894531 z m 0 1.117187 c -8.152344 0 -14.777344 6.625 -14.777344 14.777344 c 0 8.148438 6.628906 14.777344 14.777344 14.777344 c 8.152344 0 14.777344 -6.628906 14.777344 -14.777344 c 0 -8.152344 -6.628906 -14.777344 -14.777344 -14.777344 z m -52 0.59375 c 7.847656 0 14.1875 6.335938 14.1875 14.183594 s -6.339844 14.1875 -14.1875 14.1875 s -14.1875 -6.339844 -14.1875 -14.1875 s 6.339844 -14.183594 14.1875 -14.183594 z m 52 1.40625 c 7.070312 0 12.777344 5.707032 12.777344 12.777344 s -5.707032 12.777344 -12.777344 12.777344 s -12.777344 -5.707032 -12.777344 -12.777344 s 5.707032 -12.777344 12.777344 -12.777344 z m 0 0" fill="url(#ab)"/>
        </g>
    </g>
    <g clip-path="url(#ac)">
        <g clip-path="url(#ad)">
            <path d="m 25 38 h 78 c 1.105469 0 1.976562 0.910156 2.246094 1.980469 c 0.71875 2.828125 2.945312 5.054687 5.773437 5.773437 c 1.070313 0.269532 1.980469 1.140625 1.980469 2.246094 v 9 h -98 v -9 c 0 -1.105469 0.910156 -1.976562 1.980469 -2.246094 c 2.828125 -0.71875 5.054687 -2.945312 5.773437 -5.773437 c 0.269532 -1.070313 1.140625 -1.980469 2.246094 -1.980469 z m 0 0" fill="#ffffff"/>
        </g>
    </g>
    <g clip-path="url(#ae)">
        <g clip-path="url(#af)">
            <path d="m 13 45 h 102 v -2 h -102 z m 0 6 h 102 v -2 h -102 z m 0 0" fill="#f6f5f4"/>
        </g>
    </g>
    <path d="m 16 36 c -1.65625 0 -3 1.34375 -3 3 s 1.34375 3 3 3 s 3 -1.34375 3 -3 s -1.34375 -3 -3 -3 z m 96 0 c -1.65625 0 -3 1.34375 -3 3 s 1.34375 3 3 3 s 3 -1.34375 3 -3 s -1.34375 -3 -3 -3 z m -96 2 c 0.550781 0 1 0.449219 1 1 s -0.449219 1 -1 1 s -1 -0.449219 -1 -1 s 0.449219 -1 1 -1 z m 96 0 c 0.550781 0 1 0.449219 1 1 s -0.449219 1 -1 1 s -1 -0.449219 -1 -1 s 0.449219 -1 1 -1 z m -96 59.015625 c -1.65625 0 -3 1.339844 -3 3 c 0 1.65625 1.34375 3 3 3 s 3 -1.34375 3 -3 c 0 -1.660156 -1.34375 -3 -3 -3 z m 96 0 c -1.65625 0 -3 1.339844 -3 3 c 0 1.65625 1.34375 3 3 3 s 3 -1.34375 3 -3 c 0 -1.660156 -1.34375 -3 -3 -3 z m -96 2 c 0.550781 0 1 0.445313 1 1 c 0 0.550781 -0.449219 1 -1 1 s -1 -0.449219 -1 -1 c 0 -0.554687 0.449219 -1 1 -1 z m 96 0 c 0.550781 0 1 0.445313 1 1 c 0 0.550781 -0.449219 1 -1 1 s -1 -0.449219 -1 -1 c 0 -0.554687 0.449219 -1 1 -1 z m 0 0" fill="#868589"/>
</svg>
